SRRun01_grf
version=1
nRows=15
nColumns=19
inDegrees=no
endheader
time	ground_force_r_vx	ground_force_r_vy	ground_force_r_vz	ground_force_r_px	ground_force_r_py	ground_force_r_pz	ground_force_r_mx	ground_force_r_my	ground_force_r_mz	ground_force_l_vx	ground_force_l_vy	ground_force_l_vz	ground_force_l_px	ground_force_l_py	ground_force_l_pz	ground_force_l_mx	ground_force_l_my	ground_force_l_mz
    147.49900000	    -61.83677021	   1013.47356036	    174.41929915	      0.84292104	      0.00000000	     -1.20551173	      0.00005413	      7.50105356	      0.00003979	      0.00000000	      0.00000000	      0.00000000	      0.00000000	      0.00000000	      0.00000000	      0.00000000	      0.00000000	      0.00000000
    147.50000000	    -80.92949927	   1022.86873103	    171.56312133	      0.84165178	      0.00000000	     -1.20436547	      0.00005544	     11.67663068	      0.00003938	      0.00000000	      0.00000000	      0.00000000	      0.00000000	      0.00000000	      0.00000000	      0.00000000	      0.00000000	      0.00000000
    147.50100000	    -96.87541611	   1033.63894004	    167.36759148	      0.84057026	      0.00000000	     -1.20304944	      0.00005650	     14.38430516	      0.00003922	      0.00000000	      0.00000000	      0.00000000	      0.00000000	      0.00000000	      0.00000000	      0.00000000	      0.00000000	      0.00000000
    147.50200000	   -108.96764223	   1045.81387368	    162.57642045	      0.83972333	      0.00000000	     -1.20161094	      0.00005726	     15.48747269	      0.00003933	      0.00000000	      0.00000000	      0.00000000	      0.00000000	      0.00000000	      0.00000000	      0.00000000	      0.00000000	      0.00000000
    147.50300000	   -116.76431934	   1059.36070156	    157.92559839	      0.83914112	      0.00000000	     -1.20008557	      0.00005769	     15.00129314	      0.00003975	      0.00000000	      0.00000000	      0.00000000	      0.00000000	      0.00000000	      0.00000000	      0.00000000	      0.00000000	      0.00000000
    147.50400000	   -120.09354461	   1074.18848407	    154.07835501	      0.83883685	      0.00000000	     -1.19849765	      0.00005785	     13.08442148	      0.00004043	      0.00000000	      0.00000000	      0.00000000	      0.00000000	      0.00000000	      0.00000000	      0.00000000	      0.00000000	      0.00000000
    147.50500000	   -119.04148430	   1090.15765988	    151.56943453	      0.83880747	      0.00000000	     -1.19686332	      0.00005782	     10.01711988	      0.00004135	      0.00000000	      0.00000000	      0.00000000	      0.00000000	      0.00000000	      0.00000000	      0.00000000	      0.00000000	      0.00000000
    147.50600000	   -113.92669282	   1107.09308502	    150.76358673	      0.83903505	      0.00000000	     -1.19519500	      0.00005774	      6.16817519	      0.00004246	      0.00000000	      0.00000000	      0.00000000	      0.00000000	      0.00000000	      0.00000000	      0.00000000	      0.00000000	      0.00000000
    147.50700000	   -105.26376438	   1124.79871196	    151.83176296	      0.83948880	      0.00000000	     -1.19350586	      0.00005776	      1.95410936	      0.00004370	      0.00000000	      0.00000000	      0.00000000	      0.00000000	      0.00000000	      0.00000000	      0.00000000	      0.00000000	      0.00000000
    147.50800000	    -93.71938880	   1143.07182193	    154.74682401	      0.84012766	      0.00000000	     -1.19181306	      0.00005804	     -2.20500595	      0.00004505	      0.00000000	      0.00000000	      0.00000000	      0.00000000	      0.00000000	      0.00000000	      0.00000000	      0.00000000	      0.00000000
    147.50900000	    -80.06392789	   1161.71484397	    159.29866578	      0.84090339	      0.00000000	     -1.19013868	      0.00005872	     -5.92838210	      0.00004646	      0.00000000	      0.00000000	      0.00000000	      0.00000000	      0.00000000	      0.00000000	      0.00000000	      0.00000000	      0.00000000
    147.51000000	    -65.12166586	   1180.54338284	    165.12663518	      0.84176388	      0.00000000	     -1.18850832	      0.00005991	     -8.91138145	      0.00004793	      0.00000000	      0.00000000	      0.00000000	      0.00000000	      0.00000000	      0.00000000	      0.00000000	      0.00000000	      0.00000000
    147.51100000	    -49.72267245	   1199.39007657	    171.76515831	      0.84265631	      0.00000000	     -1.18694747	      0.00006169	    -10.95259269	      0.00004942	      0.00000000	      0.00000000	      0.00000000	      0.00000000	      0.00000000	      0.00000000	      0.00000000	      0.00000000	      0.00000000
    147.51200000	    -34.65867600	   1218.10488741	    178.69699215	      0.84352992	      0.00000000	     -1.18547692	      0.00006405	    -11.96857224	      0.00005092	      0.00000000	      0.00000000	      0.00000000	      0.00000000	      0.00000000	      0.00000000	      0.00000000	      0.00000000	      0.00000000
    147.51300000	    -20.64464262	   1236.55300166	    185.40779519	      0.84433832	      0.00000000	     -1.18410819	      0.00006694	    -11.99522115	      0.00005240	      0.00000000	      0.00000000	      0.00000000	      0.00000000	      0.00000000	      0.00000000	      0.00000000	      0.00000000	      0.00000000
